# xmcd
#
# Track frame offsets: 
#        150
#        10534
#        21845
#        42803
#        65048
#        79062
#        92511
#        107854
#        121367
#        133627
#        145760
#        157188
#        168359
#        181772
#        190659
#        205207
#        218402
#        229653
#        253877
#        270070
#        280182
#        296155
#        308197
#        319996
#        330951
#        340790
#
# Disc length: 4748 seconds
#
# Revision: 0
# Processed by: cddbd v1.5.2PL0 Copyright (c) Steve Scherf et al.
# Submitted via: ExactAudioCopyFreeDBPlugin 1.0
#
DISCID=6a128a1a
DTITLE=Various Artist - Really the Blues - Disc 32
DYEAR=1900
DGENRE=50s
TTITLE0=Miss Ann
TTITLE1=Suffering with the Blues
TTITLE2=Ghosts - Baby Doll's Fright
TTITLE3=Solo Blues
TTITLE4=I Can't Quit You Baby
TTITLE5=Bye and Bye
TTITLE6=Three Hours Past Midnight
TTITLE7=Pitiful
TTITLE8=If It's News to You
TTITLE9=The New Woodpecker Song
TTITLE10=2 Degrees East, 3 Degrees West
TTITLE11=Down Home
TTITLE12=My Honey's Lovin' Arms
TTITLE13=Little Maggie
TTITLE14=Lowland Blues
TTITLE15=Never Grow Old
TTITLE16=Who Do You Love?
TTITLE17=Slow Groove
TTITLE18=Rick Kick Shaw (excerpt)
TTITLE19=Ain't That Lovin' You Baby
TTITLE20=K.M. Blues
TTITLE21=Hot Dog That Made Him Mad
TTITLE22=Dreaming
TTITLE23=I Flipped
TTITLE24=Tough Lover
TTITLE25=Strip Tease
EXTD=
EXTT0=
EXTT1=
EXTT2=
EXTT3=
EXTT4=
EXTT5=
EXTT6=
EXTT7=
EXTT8=
EXTT9=
EXTT10=
EXTT11=
EXTT12=
EXTT13=
EXTT14=
EXTT15=
EXTT16=
EXTT17=
EXTT18=
EXTT19=
EXTT20=
EXTT21=
EXTT22=
EXTT23=
EXTT24=
EXTT25=
PLAYORDER=
